<svg xmlns="http://www.w3.org/2000/svg" width="47" height="47" viewBox="0 0 47 47">
  <g id="Group_1465" data-name="Group 1465" transform="translate(499.47 -61.266)">
    <path id="Path_3793" data-name="Path 3793" d="M-475.97,61.766a23,23,0,0,0-23,23,23,23,0,0,0,23,23,23,23,0,0,0,23-23A23,23,0,0,0-475.97,61.766Zm8.775,11.713h-3.181c-2.495,0-2.977,1.185-2.977,2.925V80.24h5.949l0,6.007h-5.945v15.415h-6.2V86.247h-5.187V80.24h5.187V75.81c0-5.141,3.141-7.941,7.727-7.941l4.636.007v5.6Z" fill="none" stroke="#ff003b" stroke-miterlimit="10" stroke-width="1"/>
  </g>
</svg>
