<svg id="Group_1510" data-name="Group 1510" xmlns="http://www.w3.org/2000/svg" width="89" height="91" viewBox="0 0 89 91">
  <g id="Group_1489" data-name="Group 1489" transform="translate(0 0)">
    <rect id="Rectangle_1889" data-name="Rectangle 1889" width="89" height="91" rx="22.962" fill="#003144"/>
    <g id="Group_1525" data-name="Group 1525" transform="translate(-1467.369 -4506.148)">
      <g id="Group_1523" data-name="Group 1523">
        <path id="Path_3941" data-name="Path 3941" d="M1506.446,4535.148h13.6a3,3,0,0,1,3,3v8.99c0,6.208-5.032,11.76-11.239,11.76h0c-6.207,0-11.239-5.552-11.239-11.76v-10.274" fill="none" stroke="#fff" stroke-linecap="round" stroke-linejoin="round" stroke-width="4"/>
        <path id="Path_3942" data-name="Path 3942" d="M1520.072,4567.219v.1a1.81,1.81,0,0,1-1.81,1.811h-12.9a1.811,1.811,0,0,1-1.811-1.811v-.1" fill="none" stroke="#fff" stroke-linecap="round" stroke-linejoin="round" stroke-width="4"/>
        <line id="Line_43" data-name="Line 43" y2="10.228" transform="translate(1511.809 4558.897)" fill="none" stroke="#fff" stroke-linecap="round" stroke-linejoin="round" stroke-width="4"/>
      </g>
      <g id="Group_1524" data-name="Group 1524">
        <line id="Line_44" data-name="Line 44" y2="9.535" transform="translate(1529.25 4540.118)" fill="none" stroke="#fff" stroke-linecap="round" stroke-linejoin="round" stroke-width="4"/>
        <line id="Line_45" data-name="Line 45" y1="9.535" transform="translate(1494.369 4540.118)" fill="none" stroke="#fff" stroke-linecap="round" stroke-linejoin="round" stroke-width="4"/>
      </g>
    </g>
  </g>
</svg>
