<svg xmlns="http://www.w3.org/2000/svg" width="89" height="89" viewBox="0 0 89 89">
  <g id="Group_1489" data-name="Group 1489" transform="translate(0)">
    <rect id="Rectangle_1889" data-name="Rectangle 1889" width="89" height="89" rx="22.962" transform="translate(0)" fill="#003144"/>
    <g id="Group_1514" data-name="Group 1514" transform="translate(29 28)">
      <path id="Path_3926" data-name="Path 3926" d="M584.346,4932.5l-2.547-2.548a3.751,3.751,0,0,0-5.3,0l-1.379,1.379a4.687,4.687,0,0,1-6.628,0l-5.46-5.459a4.687,4.687,0,0,1,0-6.628l1.379-1.379a3.749,3.749,0,0,0,0-5.3l-2.547-2.547a3.751,3.751,0,0,0-5.3,0h0a14.041,14.041,0,0,0,0,19.859l7.928,7.929a14.043,14.043,0,0,0,19.859,0h0A3.75,3.75,0,0,0,584.346,4932.5Z" transform="translate(-552.445 -4908.913)" fill="none" stroke="#fff" stroke-linecap="round" stroke-linejoin="round" stroke-width="4"/>
    </g>
  </g>
</svg>
