<svg xmlns="http://www.w3.org/2000/svg" width="46.991" height="47" viewBox="0 0 46.991 47">
  <g id="Group_1468" data-name="Group 1468" transform="translate(-0.398 0.5)">
    <path id="Path_3794" data-name="Path 3794" d="M46.772,13.524A16.81,16.81,0,0,0,45.7,7.944a11.784,11.784,0,0,0-6.731-6.731A16.853,16.853,0,0,0,33.392.144C30.93.027,30.148,0,23.9,0s-7.027.027-9.48.135A16.812,16.812,0,0,0,8.842,1.2a11.223,11.223,0,0,0-4.08,2.66A11.326,11.326,0,0,0,2.111,7.935a16.852,16.852,0,0,0-1.069,5.58C.925,15.977.9,16.759.9,23s.027,7.027.135,9.48A16.809,16.809,0,0,0,2.1,38.066,11.782,11.782,0,0,0,8.833,44.8a16.856,16.856,0,0,0,5.581,1.069c2.453.108,3.235.135,9.48.135s7.027-.027,9.48-.135a16.806,16.806,0,0,0,5.58-1.069,11.766,11.766,0,0,0,6.731-6.731,16.865,16.865,0,0,0,1.069-5.581c.108-2.453.135-3.235.135-9.48S46.88,15.977,46.772,13.524ZM42.63,32.305a12.606,12.606,0,0,1-.791,4.268,7.631,7.631,0,0,1-4.367,4.367,12.656,12.656,0,0,1-4.268.79c-2.426.108-3.154.135-9.292.135s-6.874-.027-9.292-.135a12.6,12.6,0,0,1-4.268-.79A7.079,7.079,0,0,1,7.71,39.225a7.153,7.153,0,0,1-1.717-2.642,12.653,12.653,0,0,1-.79-4.268c-.108-2.426-.135-3.154-.135-9.292s.027-6.874.135-9.292a12.6,12.6,0,0,1,.79-4.268A6.992,6.992,0,0,1,7.719,6.82,7.14,7.14,0,0,1,10.36,5.1a12.66,12.66,0,0,1,4.268-.791c2.426-.108,3.154-.135,9.291-.135s6.874.027,9.292.135a12.606,12.606,0,0,1,4.268.791A7.072,7.072,0,0,1,40.123,6.82a7.15,7.15,0,0,1,1.717,2.642,12.658,12.658,0,0,1,.791,4.268c.108,2.426.135,3.154.135,9.292S42.738,29.879,42.63,32.305Z" transform="translate(0 0)" fill="none" stroke="#ff003b" stroke-miterlimit="10" stroke-width="1"/>
    <path id="Path_3795" data-name="Path 3795" d="M137,124.281A11.817,11.817,0,1,0,148.813,136.1,11.82,11.82,0,0,0,137,124.281Zm0,19.482a7.665,7.665,0,1,1,7.665-7.665A7.667,7.667,0,0,1,137,143.763Z" transform="translate(-113.093 -113.093)" fill="none" stroke="#ff003b" stroke-miterlimit="10" stroke-width="1"/>
    <path id="Path_3796" data-name="Path 3796" d="M367.779,91.2a2.759,2.759,0,1,1-2.759-2.759A2.759,2.759,0,0,1,367.779,91.2Z" transform="translate(-328.833 -80.484)" fill="none" stroke="#ff003b" stroke-miterlimit="10" stroke-width="1"/>
  </g>
</svg>
