<svg xmlns="http://www.w3.org/2000/svg" width="38.88" height="37.207" viewBox="0 0 38.88 37.207">
  <g id="Group_1549" data-name="Group 1549" transform="translate(-1649.884 -4139.293)">
    <path id="Path_3947" data-name="Path 3947" d="M18.984,46h-8.12V21.57h8.12Zm-4.06-27.766h-.053a4.2,4.2,0,0,1-4.487-4.22c0-2.4,1.816-4.221,4.594-4.221a4.22,4.22,0,0,1,4.54,4.221C19.518,16.358,17.756,18.234,14.924,18.234ZM48.264,46H40.145V32.931c0-3.284-1.176-5.525-4.114-5.525a4.445,4.445,0,0,0-4.166,2.97,5.559,5.559,0,0,0-.267,1.982V46h-8.12s.106-22.138,0-24.43H31.6v3.459A8.061,8.061,0,0,1,38.915,21c5.342,0,9.348,3.492,9.348,11Z" transform="translate(1640 4130)" fill="none" stroke="#ff003b" stroke-miterlimit="10" stroke-width="1"/>
  </g>
</svg>
