<svg xmlns="http://www.w3.org/2000/svg" width="165.738" height="58.9" viewBox="0 0 165.738 58.9">
  <g id="Group_1485" data-name="Group 1485" transform="translate(-1035.306 -728.731)">
    <path id="Path_3919" data-name="Path 3919" d="M-278.224,345.346a2.114,2.114,0,0,1-2.269-2.369V332.344l-7.372.595v10.633c0,5.671,3.97,9.321,9.641,8.863a10.164,10.164,0,0,0,9.641-10.419V331.383l-7.372.595v10.633a2.553,2.553,0,0,1-2.269,2.735m-18.431-11.7-7.372.6v19.849L-289,352.879v-6.522l-7.656.617Zm-27.788,2.242v6.522l5.388-.434V355.3l7.372-.595V341.382l5.387-.435v-6.521Zm-11.909,14.146a2.114,2.114,0,0,1-2.269-2.369V337.034l-7.372.595v10.633c0,5.671,3.97,9.32,9.641,8.863a10.164,10.164,0,0,0,9.641-10.419V336.073l-7.372.6V347.3A2.553,2.553,0,0,1-336.353,350.036ZM-359.6,338.727l-8.507.686,6.806,11.643v7.656l7.372-.595v-7.656l6.805-12.742-8.507.687-1.985,5.831Zm-7.94,10.565c0-5.813-4.537-9.984-11.058-9.457s-11.059,5.429-11.059,11.242,4.537,9.983,11.059,9.457S-367.544,355.1-367.544,349.292Zm-7.939.641a3.548,3.548,0,0,1-3.119,3.654,2.927,2.927,0,0,1-3.119-3.151,3.549,3.549,0,0,1,3.119-3.654A2.927,2.927,0,0,1-375.483,349.933Zm-25.8,7.186-1.134.092v-2.836l1.134-.092c1.135-.091,1.7.43,1.7,1.28S-400.152,357.027-401.287,357.119ZM-402.421,347l.993-.081c.992-.08,1.56.442,1.56,1.15a1.5,1.5,0,0,1-1.56,1.4l-.993.081Zm6.238,4.033s3.686-1.006,3.686-4.409c0-2.977-2.552-5.323-8.931-4.809-4.4.355-8.365.959-8.365.959v19.849s3.97-.037,8.507-.4c7.089-.572,9.641-3.33,9.641-6.45,0-4.253-4.537-4.6-4.537-4.6Zm-22.968-1.55v-5.954l-13.894,1.121v5.955l6.522-.526-3.4,2.543v3.686l2.411-.194c.992-.081,1.56.441,1.56,1.15a1.5,1.5,0,0,1-1.56,1.4,6.14,6.14,0,0,1-4.112-1.228l-2.694,4.471s2.552,2.913,7.94,2.478c4.962-.4,8.081-3.771,8.081-6.89,0-4.679-4.821-5.14-4.821-5.14Z" transform="translate(1469.626 397.348)" fill="#fc2938"/>
    <path id="Path_3918" data-name="Path 3918" d="M-267.919,392.351l-8.507.687-3.4,8.214v-7.939l-7.373.595v19.849l7.373-.595v-7.94l3.97,7.619,8.506-.686-5.955-9.444Zm-30.34,15.208,7.372-.595v-5.671l-7.372.595V400.47l7.939-.641v-5.671l-15.312,1.236v19.849l15.879-1.281v-5.671l-8.506.686Zm-27.789-10.518v6.522l5.388-.435v13.327l7.372-.595V402.533l5.388-.434v-6.521Zm-9.924,15.262a7.137,7.137,0,0,1-4.82-1.454l-2.694,4.471s2.552,3.2,8.79,2.694c4.963-.4,8.081-3.772,8.081-7.032,0-6.238-7.656-5.62-7.656-7.039a1.1,1.1,0,0,1,1.134-.942,5.769,5.769,0,0,1,3.686,1.262l2.694-4.47a9.363,9.363,0,0,0-7.656-2.5c-4.962.4-8.081,3.772-8.081,7.032,0,6.239,7.656,5.621,7.656,7.039A1.1,1.1,0,0,1-335.972,412.3Zm-17.155-.317,7.372-.595V405.72l-7.372.595V404.9l7.939-.64v-5.671l-15.312,1.236V419.67l15.879-1.281v-5.671l-8.506.686Zm-10.208-2.012c0-6.1-3.8-9.9-11.342-9.293-4.537.366-8.507.97-8.507.97V421.5s3.97-.037,8.507-.4C-367.135,420.489-363.335,416.07-363.335,409.974Zm-12.476,4.976v-7.939l1.134-.092c2.127-.172,3.4,1,3.4,3.7s-1.276,4.073-3.4,4.244Z" transform="translate(1443.443 366.131)" fill="#fc2938"/>
  </g>
</svg>
