<svg xmlns="http://www.w3.org/2000/svg" width="172.27" height="174" viewBox="0 0 172.27 174">
  <g id="Group_1368" data-name="Group 1368" transform="translate(439.046 -215.124)">
    <path id="Path_3629" data-name="Path 3629" d="M-315.653,263.283a5.8,5.8,0,0,0,1.867.568,3.088,3.088,0,0,0,.608.1,3.158,3.158,0,0,0,1.23.209l.023.009a3.057,3.057,0,0,0-2.057,2.482q-2.4-.885-4.886-1.581h.435a3.056,3.056,0,0,0,2.781-1.788M-405.33,307a72.071,72.071,0,0,1,35.606-43.614,3.057,3.057,0,0,0,2.984,2.4,5.383,5.383,0,0,0,1.546-.118l.3-.084a4.3,4.3,0,0,0,1.388-.137l-.106.036h1.222a3.06,3.06,0,0,0,1.072-.193,3.062,3.062,0,0,0,.777.093,3.044,3.044,0,0,0,1.519.009h0l.6-.01a3.06,3.06,0,0,0,2.159-.227,3.073,3.073,0,0,0,.438-.168l-.387.194h1.375c.221.018.456.044.689.065q-1.9.553-3.759,1.217a5.052,5.052,0,0,0-1.48-.119,4.014,4.014,0,0,0-1.193-.1,3.087,3.087,0,0,0-.8-.106h.293a5.942,5.942,0,0,0-2.228-.1h-1.5a3.05,3.05,0,0,0-1.174.234,3.056,3.056,0,0,0-1.543.173,6.363,6.363,0,0,0-1.988.154l-.607.2-.013,0a3.149,3.149,0,0,0-1.731.141,3.239,3.239,0,0,0-1.486.274,4.71,4.71,0,0,0-2.109.841,3.037,3.037,0,0,0-1.422.426,3.065,3.065,0,0,0-1.557,1.425,3.061,3.061,0,0,0-.846,2.16v.659a3.044,3.044,0,0,0,.668,1.907,3.09,3.09,0,0,0-.4.5,3.067,3.067,0,0,0-.3,4.158,64.24,64.24,0,0,0-17.752,26.925Zm138.31,39.7a71.964,71.964,0,0,1-69.2,52.229,71.928,71.928,0,0,1-64.286-39.635l8.241-.777a64.269,64.269,0,0,0,56.046,32.774,64.319,64.319,0,0,0,60.961-43.813Zm-27.743-78.428a72.221,72.221,0,0,1,22.678,26.155l-8.239.777a64.43,64.43,0,0,0-12.841-15.956,7.276,7.276,0,0,0,.4-.992,3.9,3.9,0,0,0,.229-2.546,3.361,3.361,0,0,0-.239-1.438,3.062,3.062,0,0,0-.065-.307,3.042,3.042,0,0,0-.675-1.84,3.07,3.07,0,0,0-.522-.931l-.034-.127a3.039,3.039,0,0,0-.384-1.171,3.04,3.04,0,0,0-.3-1.323Z" transform="translate(-17.264 -24.659)" fill="#232323"/>
    <path id="Path_3630" data-name="Path 3630" d="M-278.224,345.346a2.114,2.114,0,0,1-2.269-2.369V332.344l-7.372.595v10.633c0,5.671,3.97,9.321,9.641,8.863a10.164,10.164,0,0,0,9.641-10.419V331.383l-7.372.595v10.633a2.553,2.553,0,0,1-2.269,2.735m-18.431-11.7-7.372.6v19.849L-289,352.879v-6.522l-7.656.617Zm-27.788,2.242v6.522l5.388-.434V355.3l7.372-.595V341.382l5.387-.435v-6.521Zm-11.909,14.146a2.114,2.114,0,0,1-2.269-2.369V337.034l-7.372.595v10.633c0,5.671,3.97,9.32,9.641,8.863a10.164,10.164,0,0,0,9.641-10.419V336.073l-7.372.6V347.3A2.553,2.553,0,0,1-336.353,350.036ZM-359.6,338.727l-8.507.686,6.806,11.643v7.656l7.372-.595v-7.656l6.805-12.742-8.507.687-1.985,5.831Zm-7.94,10.565c0-5.813-4.537-9.984-11.058-9.457s-11.059,5.429-11.059,11.242,4.537,9.983,11.059,9.457S-367.544,355.1-367.544,349.292Zm-7.939.641a3.548,3.548,0,0,1-3.119,3.654,2.927,2.927,0,0,1-3.119-3.151,3.549,3.549,0,0,1,3.119-3.654A2.927,2.927,0,0,1-375.483,349.933Zm-25.8,7.186-1.134.092v-2.836l1.134-.092c1.135-.091,1.7.43,1.7,1.28S-400.152,357.027-401.287,357.119ZM-402.421,347l.993-.081c.992-.08,1.56.442,1.56,1.15a1.5,1.5,0,0,1-1.56,1.4l-.993.081Zm6.238,4.033s3.686-1.006,3.686-4.409c0-2.977-2.552-5.323-8.931-4.809-4.4.355-8.365.959-8.365.959v19.849s3.97-.037,8.507-.4c7.089-.572,9.641-3.33,9.641-6.45,0-4.253-4.537-4.6-4.537-4.6Zm-22.968-1.55v-5.954l-13.894,1.121v5.955l6.522-.526-3.4,2.543v3.686l2.411-.194c.992-.081,1.56.441,1.56,1.15a1.5,1.5,0,0,1-1.56,1.4,6.14,6.14,0,0,1-4.112-1.228l-2.694,4.471s2.552,2.913,7.94,2.478c4.962-.4,8.081-3.771,8.081-6.89,0-4.679-4.821-5.14-4.821-5.14Z" transform="translate(-2.419 -59.528)" fill="#fc2938"/>
    <path id="Path_3631" data-name="Path 3631" d="M-267.919,392.351l-8.507.687-3.4,8.214v-7.939l-7.373.595v19.849l7.373-.595v-7.94l3.97,7.619,8.506-.686-5.955-9.444Zm-30.34,15.208,7.372-.595v-5.671l-7.372.595V400.47l7.939-.641v-5.671l-15.312,1.236v19.849l15.879-1.281v-5.671l-8.506.686Zm-27.789-10.518v6.522l5.388-.435v13.327l7.372-.595V402.533l5.388-.434v-6.521Zm-9.924,15.262a7.137,7.137,0,0,1-4.82-1.454l-2.694,4.471s2.552,3.2,8.79,2.694c4.963-.4,8.081-3.772,8.081-7.032,0-6.238-7.656-5.62-7.656-7.039a1.1,1.1,0,0,1,1.134-.942,5.769,5.769,0,0,1,3.686,1.262l2.694-4.47a9.363,9.363,0,0,0-7.656-2.5c-4.962.4-8.081,3.772-8.081,7.032,0,6.239,7.656,5.621,7.656,7.039A1.1,1.1,0,0,1-335.972,412.3Zm-17.155-.317,7.372-.595V405.72l-7.372.595V404.9l7.939-.64v-5.671l-15.312,1.236V419.67l15.879-1.281v-5.671l-8.506.686Zm-10.208-2.012c0-6.1-3.8-9.9-11.342-9.293-4.537.366-8.507.97-8.507.97V421.5s3.97-.037,8.507-.4C-367.135,420.489-363.335,416.07-363.335,409.974Zm-12.476,4.976v-7.939l1.134-.092c2.127-.172,3.4,1,3.4,3.7s-1.276,4.073-3.4,4.244Z" transform="translate(-28.603 -90.745)" fill="#fc2938"/>
    <path id="Path_3632" data-name="Path 3632" d="M-327.553,243.823a2.214,2.214,0,0,0-.638.16,2.3,2.3,0,0,0-.74.5,2.244,2.244,0,0,0-.5.74,2.249,2.249,0,0,0-.172.866v13.024a2.25,2.25,0,0,0,.172.866,2.274,2.274,0,0,0,.494.739l.006.006a2.226,2.226,0,0,0,.73.491,2.27,2.27,0,0,0,.871.171h11.6a2.289,2.289,0,0,0,.868-.168,2.313,2.313,0,0,0,.738-.488l.01-.012a2.3,2.3,0,0,0,.489-.737,2.289,2.289,0,0,0,.168-.868V246.085a2.284,2.284,0,0,0-.169-.872,2.292,2.292,0,0,0-.487-.736,2.355,2.355,0,0,0-.75-.5,2.232,2.232,0,0,0-.638-.159Zm10.566-7.534h1.259q.236,0,.469.011H-283.7a16.854,16.854,0,0,0-.959-3.185,16.9,16.9,0,0,0-3.674-5.5,17.088,17.088,0,0,0-5.521-3.687,16.954,16.954,0,0,0-6.492-1.282,16.983,16.983,0,0,0-6.5,1.28,16.908,16.908,0,0,0-5.494,3.669l-.02.02a16.9,16.9,0,0,0-3.674,5.5A16.851,16.851,0,0,0-316.988,236.289Zm-37.441.011H-327.8c.156-.007.312-.011.469-.011h2.718a24.323,24.323,0,0,1,1.632-6.027,24.566,24.566,0,0,1,5.313-7.942l.02-.02a24.562,24.562,0,0,1,7.948-5.317,24.379,24.379,0,0,1,9.353-1.858,24.4,24.4,0,0,1,9.363,1.857,24.535,24.535,0,0,1,7.951,5.318,24.676,24.676,0,0,1,5.317,7.961,24.319,24.319,0,0,1,1.635,6.04h2.408a8.072,8.072,0,0,1,3.1.619,8.173,8.173,0,0,1,2.637,1.765,8.308,8.308,0,0,1,1.765,2.647,8.026,8.026,0,0,1,.619,3.088v24.725l-7.523.581V244.419a.638.638,0,0,0-.044-.236.546.546,0,0,0-.122-.183.678.678,0,0,0-.2-.134.619.619,0,0,0-.227-.043H-306.2a9.681,9.681,0,0,1,.268,2.262v13.024a9.683,9.683,0,0,1-.746,3.728,9.873,9.873,0,0,1-2.129,3.179l-.02.02A9.874,9.874,0,0,1-312,268.159a9.674,9.674,0,0,1-3.728.746h-1.459l-1.2.548-3.06,1.4-4.259-1.945h-1.621a9.679,9.679,0,0,1-3.728-.746,9.883,9.883,0,0,1-3.178-2.129,9.807,9.807,0,0,1-2.141-3.178,9.7,9.7,0,0,1-.749-3.743V246.085a9.729,9.729,0,0,1,.266-2.262h-17.572a.627.627,0,0,0-.236.044.55.55,0,0,0-.184.122l-.011.011a.557.557,0,0,0-.121.184.625.625,0,0,0-.044.236V277.4l-7.522.6V244.419a8.014,8.014,0,0,1,.619-3.086,8.22,8.22,0,0,1,1.765-2.635l.012-.014a8.257,8.257,0,0,1,2.637-1.765A8.024,8.024,0,0,1-354.429,236.3Z" transform="translate(-39.169 0)" fill="#232323"/>
    <path id="Path_3633" data-name="Path 3633" d="M-267.032,457.466a1.924,1.924,0,0,1,1.85-1.946,1.594,1.594,0,0,1,1.867,1.658,1.923,1.923,0,0,1-1.867,1.963,1.608,1.608,0,0,1-1.85-1.675m5.9-.457a3.462,3.462,0,0,0-4.052-3.562,4.154,4.154,0,0,0-4.035,4.189,3.45,3.45,0,0,0,3.923,3.571l-2.488,3.83,2.52-.2,3.477-5.517h-.016A4.2,4.2,0,0,0-261.131,457.008Zm-11.516-2.761-2.935,1.264.542,1.84,2.106-.753v8.837l2.2-.171V454.1Zm-10.128,8.122,5.981-.464v-1.978l-5.981.464Zm-6.938,2.26-2.233.173v-6.954l2.233-.173a2.949,2.949,0,0,1,3.27,3.224A3.534,3.534,0,0,1-289.714,464.63Zm0-9.06-4.434.343v11.165l4.434-.344a5.9,5.9,0,0,0,5.375-6A4.91,4.91,0,0,0-289.714,455.57Zm-8.709.674v11.165l2.2-.17V456.073ZM-305.983,468l2.727-.211,3.764-11.457-2.408.187-2.712,8.791-2.727-8.37-2.393.185Zm-9.618-1.185a3.229,3.229,0,0,1-3.6-3.373,3.885,3.885,0,0,1,3.6-3.948,3.233,3.233,0,0,1,3.6,3.389A3.88,3.88,0,0,1-315.6,466.81Zm0,2.153a6.337,6.337,0,0,0,5.806-6.256,5.253,5.253,0,0,0-5.806-5.356,6.311,6.311,0,0,0-5.79,6.254A5.25,5.25,0,0,0-315.6,468.963Zm-11.325.877a6.064,6.064,0,0,0,4.8-3l-1.9-.954a3.536,3.536,0,0,1-2.9,1.8,3.164,3.164,0,0,1-3.62-3.372,3.8,3.8,0,0,1,3.62-3.949,2.961,2.961,0,0,1,2.9,1.37l1.9-1.248a5.1,5.1,0,0,0-4.8-2.26,6.214,6.214,0,0,0-5.805,6.256A5.178,5.178,0,0,0-326.926,469.841Z" transform="translate(-54.436 -122.019)" fill="#232323"/>
    <path id="Path_3634" data-name="Path 3634" d="M-266.941,383.218l-.054-1.4-6.463.249.054,1.4Zm-7.239-.42a.9.9,0,0,0-.94-.87.907.907,0,0,0-.87.939.916.916,0,0,0,.939.87A.908.908,0,0,0-274.18,382.8Zm2.288,7.029-1.341-.1-.122,1.6-1.805-.137.306,1.424,1.393.106-.091,1.187,1.342.1.09-1.187,3.1.236c1.677.128,2.335-.678,2.241-2.839l-1.251-.1c-.029,1.061-.058,1.6-.883,1.541l-3.1-.236Zm-.5,15.134a1.879,1.879,0,0,1-1.2-2.213,1.8,1.8,0,0,1,1.905-1.525Zm1.121.2.95-5.06a4.341,4.341,0,0,0-.562-.159,3.265,3.265,0,0,0-3.956,2.561,3.3,3.3,0,0,0,2.714,3.984,3.311,3.311,0,0,0,3.992-2.831,3.267,3.267,0,0,0-.863-3.044l-.873,1.007a1.976,1.976,0,0,1,.48,1.788A1.944,1.944,0,0,1-271.269,405.158Zm.819,7.524-4.061,1.757-2.109-3.7-.539,1.62,1.92,3.284-5.167-1.72-.441,1.326,8.591,2.859.442-1.325-2.835-.943,3.672-1.573Zm-10.235,14.8a1.88,1.88,0,0,1-.545-2.459,1.8,1.8,0,0,1,2.252-.939Zm1.023.5,2.311-4.6a4.346,4.346,0,0,0-.5-.307,3.264,3.264,0,0,0-4.509,1.368,3.3,3.3,0,0,0,1.507,4.579,3.312,3.312,0,0,0,4.62-1.617,3.266,3.266,0,0,0,.012-3.164l-1.118.726a1.974,1.974,0,0,1-.033,1.851A1.944,1.944,0,0,1-279.661,427.98Zm-7.114,6.142-.884-.632-.812,1.137,5.264,3.759.812-1.137-2.653-1.894a1.709,1.709,0,0,1-.317-2.674l-1.231-.879A2.037,2.037,0,0,0-286.775,434.121Zm-4.1,11.815a2,2,0,0,1-2.908.04,2,2,0,0,1-.077-2.908,2,2,0,0,1,2.909-.04A2,2,0,0,1-290.873,445.936Zm-2.409-5.149.662.637a2.679,2.679,0,0,0-2.352.88,3.3,3.3,0,0,0,.223,4.68,3.306,3.306,0,0,0,4.685.034,2.657,2.657,0,0,0,.775-2.394l.672.645.968-1.008-4.664-4.481Zm-10.247,9.414a2.227,2.227,0,0,0-.958,2.023l-2.114-2.682-1.1.865,5.6,7.111,1.1-.865-2.146-2.722a1.6,1.6,0,0,1,.137-2.48,1.348,1.348,0,0,1,2.066.282l2.371,3.007,1.1-.865-2.458-3.119A2.415,2.415,0,0,0-303.529,450.2Zm-15.125,9.557a2.218,2.218,0,0,0-1.382,1.747,2.008,2.008,0,0,0-2.094-.174,2.079,2.079,0,0,0-1.3,1.623l-.32-.707-1.273.576,2.667,5.892,1.273-.576-1.493-3.3a1.46,1.46,0,0,1,.6-2.148c.695-.315,1.315-.041,1.689.783l1.616,3.571,1.273-.576-1.494-3.3c-.486-1.073-.174-1.8.581-2.137a1.23,1.23,0,0,1,1.725.767l1.616,3.571,1.273-.576-1.653-3.653A2.381,2.381,0,0,0-318.653,459.758Zm-12.056,11.557,1.346-.374-1.734-6.231-1.346.375Zm-1.262-7.141a.9.9,0,0,0,.629-1.115.908.908,0,0,0-1.115-.629.916.916,0,0,0-.63,1.114A.908.908,0,0,0-331.971,464.174Zm-6.5,3.665-.248-1.322-1.577.3-.334-1.779-1.3.664.258,1.373-1.17.22.248,1.322,1.17-.22.572,3.051c.31,1.653,1.259,2.08,3.322,1.43l-.232-1.233c-1.033.246-1.564.359-1.717-.454l-.573-3.051Zm-14.666,2.765a1.88,1.88,0,0,1,1.9-1.657,1.8,1.8,0,0,1,1.9,1.526Zm.052,1.137,5.145-.177a4.225,4.225,0,0,0,.032-.584,3.264,3.264,0,0,0-3.362-3.3,3.3,3.3,0,0,0-3.3,3.517,3.311,3.311,0,0,0,3.633,3.279,3.266,3.266,0,0,0,2.782-1.506l-1.173-.632a1.976,1.976,0,0,1-1.641.858A1.944,1.944,0,0,1-353.087,471.741Zm-8.818-3.2.128-1.079-1.387-.164-.761,6.423,1.387.164.384-3.237a1.709,1.709,0,0,1,2.191-1.564l.178-1.5A2.035,2.035,0,0,0-361.9,468.538Zm-9.168-2.618-.79,3.375c-.3,1.285-1.129,1.649-2.024,1.439a1.348,1.348,0,0,1-1.069-1.791l.872-3.728-1.36-.318-.9,3.867a2.415,2.415,0,0,0,1.811,3.161,2.228,2.228,0,0,0,2.179-.513l-.188.806,1.36.319,1.474-6.3Zm-.144-.8a.779.779,0,0,0,.933-.579.778.778,0,0,0-.579-.933.779.779,0,0,0-.933.579A.779.779,0,0,0-371.216,465.115Zm-2.393-.56a.778.778,0,0,0,.933-.579.778.778,0,0,0-.579-.932.779.779,0,0,0-.932.579A.779.779,0,0,0-373.609,464.555ZM-388.4,458.35l.6-1.2c-1.676-.987-3.007-.526-3.791,1.034l-.058.116-.878-.441-.6,1.2.879.442-2.3,4.577,1.248.627,2.3-4.577,1.364.685.6-1.2-1.363-.685.058-.116C-389.888,457.919-389.233,457.828-388.4,458.35Zm-14,.92,1.171.762,3.528-5.421-1.171-.762Zm4.523-5.669a.9.9,0,0,0,1.253-.265.908.908,0,0,0-.266-1.253.916.916,0,0,0-1.252.266A.907.907,0,0,0-397.872,453.6Zm-6.8-2.342.883-1.015-1.21-1.053,1.189-1.366-1.326-.6-.916,1.054-.9-.781-.883,1.015.9.781-2.038,2.342c-1.1,1.268-.85,2.278.939,3.492l.824-.947c-.834-.657-1.252-1-.709-1.629l2.038-2.342Zm-10.955-2.9.592-4.385,4.258.105-1.109-1.3-3.8-.051,4.14-3.537-.908-1.062-6.884,5.882.908,1.062,2.271-1.941-.549,3.957Zm-7.777-16.13a1.879,1.879,0,0,1,2.39.8,1.8,1.8,0,0,1-.353,2.414Zm-.954.621,2.758,4.347a4.216,4.216,0,0,0,.519-.268,3.264,3.264,0,0,0,1.145-4.571,3.3,3.3,0,0,0-4.7-1.061,3.311,3.311,0,0,0-.989,4.793,3.267,3.267,0,0,0,2.708,1.637l-.048-1.332a1.975,1.975,0,0,1-1.571-.98A1.943,1.943,0,0,1-424.359,432.853Zm-7.027-7.172.62,1.252,8.463-4.187-.62-1.252Zm-2.843-10.021a1.986,1.986,0,0,1,1.246-2.587,1.986,1.986,0,0,1,2.6,1.214,1.987,1.987,0,0,1-1.247,2.588A1.987,1.987,0,0,1-434.229,415.659Zm-1.28.457a3.377,3.377,0,0,0,4.352,2.072,3.368,3.368,0,0,0,2.057-4.36,3.377,3.377,0,0,0-4.352-2.073A3.385,3.385,0,0,0-435.509,416.116Zm-2.483-8.878,2.7-3.507,3.64,2.212-.315-1.678-3.272-1.939,5.352-1-.257-1.373-8.9,1.67.258,1.373,2.937-.551L-438.3,405.6Z" transform="translate(0 -85.354)" fill="#232323"/>
  </g>
</svg>
