<svg xmlns="http://www.w3.org/2000/svg" width="49.438" height="39.71" viewBox="0 0 49.438 39.71">
  <path id="Path_3797" data-name="Path 3797" d="M47.166,52.156c-2.967.137-2.9.126-3.238.154l1.757-5.018S40.2,49.309,38.81,49.67a11,11,0,0,0-12.96-1.042,8.976,8.976,0,0,0-4.315,9.23,23.941,23.941,0,0,1-15.51-8.732l-1.3-1.563-.972,1.786A10.79,10.79,0,0,0,2.6,56.612a10.437,10.437,0,0,0,1.011,2.836L2.5,59.015,2.365,60.88A9.951,9.951,0,0,0,4.053,66.8a10.518,10.518,0,0,0,1.315,1.621l-.577-.089.7,2.137a10.39,10.39,0,0,0,5.34,6.188c-2.49,1.057-4.5,1.731-7.809,2.819L0,80.467l2.795,1.528a29.332,29.332,0,0,0,8.551,3.112c8.269,1.3,17.58.241,23.847-5.4,5.279-4.755,7.012-11.518,6.652-18.556a4.4,4.4,0,0,1,.822-2.863C43.837,56.721,47.159,52.166,47.166,52.156Zm-6.709,4.473a7.161,7.161,0,0,0-1.37,4.659c.363,7.1-1.569,12.605-5.742,16.363-4.875,4.39-12.738,6.114-21.572,4.728a21.393,21.393,0,0,1-4.622-1.374,73.289,73.289,0,0,0,8.371-3.441L20.35,75.28l-5.329-.341A7.537,7.537,0,0,1,9.035,71.53a9.559,9.559,0,0,0,2.029-.338l5.083-1.416L11.022,68.52a7.633,7.633,0,0,1-4.663-3.243,7.816,7.816,0,0,1-1.01-2.23,12.794,12.794,0,0,0,2.079.332l4.744.469L8.413,60.917a7.911,7.911,0,0,1-3-8.337A27.5,27.5,0,0,0,24.79,60.92a16.353,16.353,0,0,0-.283-2.344,6.345,6.345,0,0,1,2.789-7.6,8.254,8.254,0,0,1,9.738.806,2.473,2.473,0,0,0,2.269.607,19.094,19.094,0,0,0,1.87-.569l-1.192,3.4H41.5C41.215,55.615,40.871,56.076,40.456,56.628Z" transform="translate(1.252 -46.456)" fill="none" stroke="#ff003b" stroke-miterlimit="10" stroke-width="1"/>
</svg>
