<svg xmlns="http://www.w3.org/2000/svg" width="61.554" height="46.865" viewBox="0 0 61.554 46.865">
  <g id="Group_1547" data-name="Group 1547" transform="translate(0.5 -61.5)">
    <path id="Path_3948" data-name="Path 3948" d="M207.96,176.148l-13.378-7.32a2.457,2.457,0,0,0-3.637,2.156V185.5a2.453,2.453,0,0,0,3.621,2.164l13.378-7.194a2.457,2.457,0,0,0,.015-4.32Zm-13.466,7.524V172.825l10,5.471Z" transform="translate(-168.362 -93.925)" fill="none" stroke="#ff003b" stroke-miterlimit="10" stroke-width="1"/>
    <path id="Path_3949" data-name="Path 3949" d="M60.105,72.8c-.051-.487-.562-4.823-2.669-7.028a9.853,9.853,0,0,0-6.526-3.06c-.11-.012-.211-.024-.3-.036l-.106-.011C42.5,62.08,30.408,62,30.287,62h-.021c-.121,0-12.211.08-20.288.662l-.107.011c-.086.012-.181.022-.284.034A9.606,9.606,0,0,0,3.1,65.862C1.092,68.044.512,72.286.452,72.763l-.007.062C.427,73.028,0,77.856,0,82.7v4.531c0,4.847.427,9.675.445,9.879l0,.03c.051.48.561,4.735,2.659,6.941A10.056,10.056,0,0,0,9.852,107.1c.246.028.458.052.6.078l.14.019c4.622.44,19.114.657,19.729.665h.037c.121,0,12.21-.08,20.216-.662l.106-.011c.1-.013.215-.025.34-.038a9.383,9.383,0,0,0,6.432-3.077c2.007-2.182,2.588-6.424,2.647-6.9l.007-.062c.018-.2.446-5.031.446-9.878V82.7ZM57,87.234c0,4.486-.392,9.107-.429,9.531-.151,1.168-.763,3.852-1.741,4.916a5.835,5.835,0,0,1-4.188,1.943c-.137.014-.263.028-.378.043-7.743.56-19.376.646-19.912.649-.6-.009-14.881-.227-19.362-.643-.23-.037-.478-.066-.739-.1a6.635,6.635,0,0,1-4.538-1.9l-.033-.035c-.961-1-1.555-3.511-1.706-4.867-.028-.321-.43-5-.43-9.545V82.7c0-4.481.391-9.1.429-9.529.18-1.376.8-3.9,1.741-4.917a6.123,6.123,0,0,1,4.277-2.024l.289-.035c7.856-.563,19.572-.646,19.993-.65s12.133.087,19.919.65l.312.037A6.354,6.354,0,0,1,54.854,68.2l.014.015c.961,1,1.555,3.555,1.706,4.938.027.3.43,4.988.43,9.546Z" fill="none" stroke="#ff003b" stroke-miterlimit="10" stroke-width="1"/>
  </g>
</svg>
